<?xml version="1.0" standalone="no"?>
<!DOCTYPE svg PUBLIC "-//W3C//DTD SVG 20010904//EN"
 "http://www.w3.org/TR/2001/REC-SVG-20010904/DTD/svg10.dtd">
<svg version="1.0" xmlns="http://www.w3.org/2000/svg"
 width="960.000000pt" height="960.000000pt" viewBox="0 0 960.000000 960.000000"
 preserveAspectRatio="xMidYMid meet">
<metadata>
Created by potrace 1.14, written by Peter Selinger 2001-2017
</metadata>
<g transform="translate(0.000000,960.000000) scale(0.100000,-0.100000)"
fill="#000000" stroke="none">
<path d="M3480 8220 c-9 -5 -15 -424 -35 -2265 -3 -253 -7 -644 -10 -870 -3
-225 -7 -628 -10 -895 -3 -267 -7 -649 -10 -850 -3 -201 -7 -612 -11 -915 -3
-302 -7 -623 -8 -713 -1 -89 1 -163 4 -163 3 -1 69 -2 147 -3 l142 -2 -4 411
c-6 539 -14 1217 -20 1755 -3 239 -7 622 -10 850 -2 228 -7 636 -10 905 -3
270 -8 654 -10 855 -10 965 -21 1771 -24 1876 l-1 30 -61 0 c-33 -1 -64 -3
-69 -6z"/>
<path d="M2933 7437 c-7 -11 -7 -46 -17 -882 -4 -275 -9 -653 -11 -840 -10
-749 -19 -1441 -30 -2330 -8 -638 -16 -1330 -20 -1582 -2 -139 0 -254 3 -254
4 -1 69 -2 145 -3 116 -1 137 1 138 14 2 37 -1 315 -16 1475 -2 171 -7 513
-10 760 -3 248 -7 605 -10 795 -5 323 -10 750 -20 1555 -12 1020 -17 1290 -21
1294 -10 10 -125 7 -131 -2z"/>
<path d="M4559 7268 c0 -46 -2 -195 -4 -333 -2 -137 -6 -475 -9 -750 -4 -275
-9 -646 -11 -825 -3 -179 -7 -521 -10 -760 -3 -239 -7 -617 -10 -840 -3 -223
-7 -553 -10 -735 -7 -614 -17 -1350 -19 -1413 -1 -49 2 -62 14 -63 38 -4 256
-5 266 -2 6 2 9 58 8 161 -8 641 -15 1162 -19 1482 -2 206 -7 555 -10 775 -3
220 -8 596 -10 835 -3 239 -8 579 -10 755 -2 176 -7 552 -10 835 -5 431 -13
923 -15 953 0 4 -31 7 -70 7 l-70 0 -1 -82z"/>
<path d="M5109 6965 c-3 0 -7 -241 -14 -700 -3 -247 -8 -583 -10 -745 -6 -414
-15 -1051 -20 -1475 -3 -198 -7 -515 -10 -705 -10 -741 -17 -1276 -18 -1530
l-2 -264 140 -1 140 0 -2 305 c0 168 -4 514 -7 770 -4 256 -9 607 -11 780 -2
173 -7 515 -10 760 -4 245 -8 555 -10 690 -7 545 -17 1258 -20 1470 -2 124 -4
320 -5 435 l-1 211 -69 0 c-39 -1 -71 -1 -71 -1z"/>
<path d="M4009 6520 c0 -58 -2 -220 -4 -360 -2 -140 -6 -460 -9 -710 -6 -451
-10 -724 -21 -1490 -4 -217 -8 -528 -10 -690 -2 -162 -7 -547 -11 -855 -4
-308 -8 -630 -8 -715 l-1 -155 143 0 144 -1 -6 436 c-4 239 -9 581 -11 760 -3
179 -7 501 -10 715 -3 215 -7 566 -10 780 -3 215 -7 530 -10 700 -2 171 -7
513 -10 760 -4 248 -8 554 -10 680 -2 127 -4 235 -4 240 -1 7 -31 11 -76 11
l-75 0 -1 -106z"/>
<path d="M5655 6452 l-30 -3 -2 -172 c-2 -208 -12 -978 -18 -1432 -5 -312 -8
-539 -20 -1410 -2 -203 -7 -532 -10 -730 -3 -198 -7 -540 -10 -760 l-5 -400
132 1 c73 1 138 2 145 3 9 1 11 69 8 289 -4 295 -12 873 -20 1437 -7 557 -16
1170 -20 1480 -2 165 -7 518 -10 785 -9 725 -12 901 -17 905 -6 6 -88 11 -123
7z"/>
<path d="M2408 6292 l-38 -3 -1 -202 c0 -111 -2 -303 -4 -427 -2 -124 -6 -420
-9 -659 -4 -239 -9 -437 -12 -440 -3 -3 -393 -6 -867 -6 l-861 0 -8 -35 c-6
-31 -18 -136 -22 -198 l-1 -24 235 -4 c129 -2 343 -6 475 -9 132 -2 420 -7
640 -11 220 -3 402 -8 406 -9 6 -4 3 -244 -3 -251 -3 -2 -198 -6 -434 -10
-236 -3 -541 -7 -679 -9 -137 -2 -346 -4 -463 -5 -116 -1 -214 -5 -216 -9 -3
-4 -10 -47 -16 -97 -6 -49 -13 -99 -15 -111 -3 -19 1 -23 23 -24 46 -2 388 -7
887 -14 512 -7 856 -13 892 -14 21 -1 21 -4 18 -118 -1 -65 -3 -122 -4 -128
-1 -6 -60 -10 -154 -11 -160 -2 -1000 -13 -1441 -19 -142 -2 -260 -5 -261 -7
-1 -2 -6 -31 -9 -65 -10 -91 -17 -146 -21 -159 -2 -8 22 -12 78 -12 89 0 887
-11 1292 -17 138 -2 310 -4 383 -5 l133 0 -2 -129 -1 -129 -132 -2 c-171 -1
-588 -7 -1161 -15 -253 -4 -497 -7 -542 -7 -46 0 -83 -3 -84 -6 0 -4 -2 -14
-3 -22 -2 -8 -6 -40 -10 -70 -3 -30 -9 -74 -12 -97 l-6 -43 54 -1 c29 0 159
-2 288 -4 222 -3 1043 -14 1417 -19 95 -1 176 -5 180 -9 7 -8 6 -237 -1 -245
-5 -5 -511 -13 -1709 -27 -142 -2 -260 -5 -262 -7 -6 -5 -13 -52 -20 -126 -4
-37 -9 -75 -11 -84 -3 -10 -2 -19 3 -19 15 -2 341 -8 808 -14 259 -3 585 -8
725 -10 140 -2 302 -4 360 -5 l106 0 -2 -97 c-1 -54 -2 -112 -3 -129 l-1 -32
-187 -2 c-104 -1 -255 -3 -338 -5 -82 -2 -312 -7 -510 -10 -198 -4 -439 -8
-535 -10 -96 -2 -241 -4 -322 -6 l-146 -2 -7 -56 c-11 -93 -15 -125 -20 -148
-11 -51 -78 -48 1178 -48 l1172 0 -1 215 c-2 241 -12 1026 -19 1430 -2 146 -7
486 -10 755 -8 589 -11 838 -20 1475 -4 267 -7 572 -8 677 -2 164 -4 193 -17
194 -8 0 -28 1 -45 2 -16 1 -47 1 -67 -1z"/>
<path d="M6130 5273 c0 -104 -3 -369 -6 -590 -5 -331 -3 -403 8 -404 19 -2 39
-1 408 5 184 4 452 9 595 11 143 3 370 7 505 10 135 2 405 7 600 11 195 3 409
7 475 9 66 1 159 3 208 4 l87 1 -5 27 c-2 15 -7 52 -10 82 -3 31 -8 65 -10 76
-2 11 -4 25 -4 30 -1 7 -364 10 -1072 10 -629 0 -1073 4 -1076 9 -6 8 -11 206
-12 471 l-1 100 -87 0 -88 0 -2 -70 c-1 -38 -3 -168 -4 -287 -2 -120 -5 -219
-8 -219 -16 -4 -298 -5 -308 -1 -8 2 -12 75 -13 250 -3 248 -8 616 -9 640 -1
8 -25 12 -85 12 l-84 0 -2 -187z"/>
<path d="M6124 4001 c-2 -2 -4 -64 -4 -138 l0 -134 393 6 c215 3 538 7 717 10
179 2 523 7 765 11 405 5 834 11 1013 13 65 1 73 3 68 19 -3 9 -8 49 -11 87
-4 39 -11 74 -16 79 -4 5 -82 10 -171 12 -90 1 -395 5 -678 9 -283 3 -621 8
-750 10 -129 2 -462 7 -740 10 -278 4 -522 7 -543 8 -21 1 -40 0 -43 -2z"/>
<path d="M6120 3320 c0 -138 0 -139 23 -135 12 2 270 6 572 10 303 3 681 7
840 10 1308 18 1558 22 1581 24 7 1 7 23 -1 79 -6 42 -12 80 -13 85 -1 4 -2
11 -2 17 0 5 -10 9 -22 9 -13 -1 -219 2 -458 5 -239 4 -579 9 -755 11 -176 2
-527 7 -780 10 -253 3 -578 8 -722 10 l-263 3 0 -138z"/>
<path d="M6120 2778 l0 -137 318 4 c174 3 484 7 687 10 204 2 564 7 800 10
237 4 549 8 695 10 146 2 339 5 429 6 l163 2 -6 56 c-9 77 -17 125 -22 130 -2
2 -93 5 -201 7 -109 1 -405 5 -658 9 -460 6 -593 8 -1535 20 -278 4 -542 8
-587 9 l-83 1 0 -137z"/>
<path d="M6122 2234 l3 -137 55 0 c92 1 1059 14 1315 18 132 2 465 7 740 10
275 4 601 8 725 10 124 2 246 4 273 4 46 1 47 2 43 29 -3 15 -8 54 -11 87 -4
33 -10 63 -13 67 -4 3 -216 9 -472 13 -256 3 -607 8 -780 10 -173 3 -488 7
-700 10 -212 2 -564 7 -783 10 l-398 6 3 -137z"/>
<path d="M6130 1822 c-6 -2 -10 -58 -10 -140 l0 -137 1615 0 1615 0 -1 25 c0
14 -6 63 -12 109 l-12 84 -40 3 c-22 1 -222 5 -445 9 -223 3 -486 8 -585 10
-189 4 -779 14 -1095 20 -306 5 -922 17 -973 19 -26 0 -52 0 -57 -2z"/>
</g>
</svg>
